<mxfile host="app.diagrams.net" modified="2022-12-04T12:32:10.267Z" agent="5.0 (Windows NT 10.0; Win64; x64) AppleWebKit/537.36 (KHTML, like Gecko) Chrome/107.0.0.0 Safari/537.36" version="20.6.0" etag="fI3f1XLHIMxO3LJ_KE0l" type="github">
  <diagram id="5ZNCT8vC5vGUqIZfFMVf" name="第 1 页">
    <mxGraphModel dx="1902" dy="712" grid="0" gridSize="10" guides="1" tooltips="1" connect="1" arrows="1" fold="1" page="0" pageScale="1" pageWidth="827" pageHeight="1169" math="0" shadow="0">
      <root>
        <mxCell id="0" />
        <mxCell id="1" parent="0" />
        <mxCell id="9V60mWQOCJzvFXCgYCVx-1" value="" style="rounded=0;whiteSpace=wrap;html=1;sketch=1;" vertex="1" parent="1">
          <mxGeometry x="-132" y="70" width="471" height="90" as="geometry" />
        </mxCell>
        <mxCell id="9V60mWQOCJzvFXCgYCVx-2" value="" style="rounded=0;whiteSpace=wrap;html=1;sketch=1;" vertex="1" parent="1">
          <mxGeometry x="-115" y="111" width="66" height="19" as="geometry" />
        </mxCell>
        <mxCell id="9V60mWQOCJzvFXCgYCVx-4" value="" style="rounded=0;whiteSpace=wrap;html=1;sketch=1;" vertex="1" parent="1">
          <mxGeometry x="-49" y="111" width="37" height="19" as="geometry" />
        </mxCell>
        <mxCell id="9V60mWQOCJzvFXCgYCVx-5" value="" style="rounded=0;whiteSpace=wrap;html=1;sketch=1;" vertex="1" parent="1">
          <mxGeometry x="-132" y="162" width="469" height="90" as="geometry" />
        </mxCell>
        <mxCell id="9V60mWQOCJzvFXCgYCVx-6" value="" style="rounded=0;whiteSpace=wrap;html=1;sketch=1;" vertex="1" parent="1">
          <mxGeometry x="-115" y="203" width="66" height="19" as="geometry" />
        </mxCell>
        <mxCell id="9V60mWQOCJzvFXCgYCVx-7" value="" style="rounded=0;whiteSpace=wrap;html=1;sketch=1;" vertex="1" parent="1">
          <mxGeometry x="-49" y="203" width="37" height="19" as="geometry" />
        </mxCell>
      </root>
    </mxGraphModel>
  </diagram>
</mxfile>
